<svg width="40" height="70" viewBox="0 0 40 70" fill="none" xmlns="http://www.w3.org/2000/svg">
<g clip-path="url(#clip0_2005_11)">
<path d="M1.61598 32.7449C0.653506 31.8197 0.112793 30.5632 0.112793 29.2548C0.112793 23.3682 0.112796 17.8207 0.112807 12.3576C0.11283 1.3698 13.933 -4.1324 22.0157 3.6371L39.6218 20.5611C40.4301 21.338 39.8576 22.6665 38.7145 22.6665H23.2077L21.173 20.7107C19.5565 19.1568 16.7924 20.2573 16.7924 22.4549V47.3333L1.61598 32.7449Z" fill="white"/>
<path d="M38.3842 37.2551C39.3467 38.1802 39.8874 39.4367 39.8874 40.7451C39.8874 46.6317 39.8874 52.1792 39.8874 57.6423C39.8873 68.6302 26.0672 74.1324 17.9844 66.3628L0.378369 49.4388C-0.429908 48.6619 0.142547 47.3334 1.28562 47.3334L16.7923 47.3333L18.8271 49.2892C20.4437 50.8431 23.2077 49.7426 23.2077 47.545L23.2076 22.6665L38.3842 37.2551Z" fill="white"/>
</g>
<defs>
<clipPath id="clip0_2005_11">
<rect width="70" height="40" fill="white" transform="matrix(0 -1 1 0 0 70)"/>
</clipPath>
</defs>
</svg>
