<svg width="707" height="920" viewBox="0 0 707 920" fill="none" xmlns="http://www.w3.org/2000/svg" xmlns:xlink="http://www.w3.org/1999/xlink">
<rect x="618.625" y="1.76587" width="39.7687" height="2.64875" fill="url(#paint0_linear_206_9)"/>
<rect x="702.581" y="98.8868" width="31.785" height="2.65124" transform="rotate(-90 702.581 98.8868)" fill="url(#paint1_linear_206_9)"/>
<rect x="702.581" y="139.501" width="31.785" height="2.65124" transform="rotate(-90 702.581 139.501)" fill="url(#paint2_linear_206_9)"/>
<path fill-rule="evenodd" clip-rule="evenodd" d="M683.117 7.76583C674.799 3.53161 663.91 3.53161 642.133 3.53161L66.6347 3.53159C44.857 3.53159 33.9682 3.53159 25.6502 7.76581C18.3336 11.4903 12.3849 17.4334 8.65686 24.7432C4.41864 33.0533 4.41864 43.9319 4.41864 65.689L4.4186 854.311C4.4186 876.068 4.4186 886.947 8.65682 895.257C12.3849 902.566 18.3335 908.509 25.6502 912.234C33.9682 916.468 44.857 916.468 66.6347 916.468L642.133 916.468C663.91 916.468 674.799 916.468 683.117 912.234C690.434 908.51 696.382 902.566 700.11 895.257C704.349 886.947 704.349 876.068 704.349 854.311L704.349 65.689C704.349 43.9319 704.349 33.0533 700.11 24.7432C696.382 17.4334 690.434 11.4904 683.117 7.76583ZM667.546 34.8981C664.899 33.5508 661.434 33.5508 654.505 33.5508L54.2622 33.5508C47.3329 33.5508 43.8682 33.5508 41.2216 34.898C38.8936 36.0831 37.0009 37.9741 35.8146 40.2999C34.4662 42.944 34.4662 46.4054 34.4662 53.3281L34.4661 866.672C34.4661 873.594 34.4661 877.056 35.8146 879.7C37.0008 882.026 38.8936 883.917 41.2216 885.102C43.8682 886.449 47.3328 886.449 54.2622 886.449L654.505 886.449C661.434 886.449 664.899 886.449 667.546 885.102C669.874 883.917 671.766 882.026 672.953 879.7C674.301 877.056 674.301 873.594 674.301 866.672L674.301 53.3282C674.301 46.4054 674.301 42.9441 672.953 40.2999C671.766 37.9741 669.874 36.0831 667.546 34.8981Z" fill="url(#paint3_linear_206_9)"/>
<path fill-rule="evenodd" clip-rule="evenodd" d="M667.6 4.94088C661.16 4.41522 653.036 4.41453 642.133 4.41453L66.6347 4.41451C55.7313 4.41451 47.6069 4.41519 41.1671 4.94085C34.7375 5.46567 30.0651 6.50937 26.0515 8.55249C18.9011 12.1924 13.0876 18.0003 9.44427 25.144C7.39929 29.1538 6.35455 33.8219 5.82922 40.2453C5.3031 46.6791 5.30243 54.7959 5.30243 65.689L5.30239 854.311C5.30239 865.204 5.30306 873.321 5.82919 879.754C6.35451 886.178 7.39925 890.846 9.44424 894.856C13.0875 901.999 18.901 907.807 26.0514 911.447C30.065 913.49 34.7375 914.534 41.167 915.059C47.6068 915.585 55.7312 915.585 66.6347 915.585L642.133 915.585C653.036 915.585 661.16 915.585 667.6 915.059C674.03 914.534 678.702 913.49 682.716 911.447C689.866 907.807 695.68 902 699.323 894.856C701.368 890.846 702.413 886.178 702.938 879.755C703.464 873.321 703.465 865.204 703.465 854.311L703.465 65.689C703.465 54.7959 703.464 46.6791 702.938 40.2454C702.413 33.8219 701.368 29.1539 699.323 25.144C695.68 18.0004 689.866 12.1924 682.716 8.55252C678.702 6.5094 674.03 5.46569 667.6 4.94088ZM662.703 32.8392C664.821 33.0121 666.478 33.3638 667.947 34.1114C670.441 35.3811 672.469 37.4071 673.74 39.8991C674.488 41.3664 674.84 43.0219 675.013 45.1377C675.185 47.2348 675.185 49.8604 675.185 53.2872L675.185 866.713C675.185 870.139 675.185 872.765 675.013 874.862C674.84 876.978 674.488 878.634 673.74 880.101C672.469 882.593 670.441 884.619 667.947 885.889C666.478 886.636 664.821 886.988 662.703 887.161C660.604 887.332 657.976 887.332 654.547 887.332L54.2204 887.332C50.7907 887.332 48.1629 887.332 46.0639 887.161C43.9461 886.988 42.2891 886.636 40.8204 885.889C38.3261 884.619 36.2981 882.593 35.0272 880.101C34.2789 878.633 33.9269 876.978 33.7539 874.862C33.5824 872.765 33.5824 870.14 33.5824 866.713L33.5824 53.2864C33.5824 49.86 33.5824 47.2346 33.7539 45.1377C33.9269 43.0219 34.2789 41.3664 35.0272 39.8991C36.2982 37.4071 38.3261 35.3811 40.8204 34.1113C42.2891 33.3637 43.9462 33.0121 46.0639 32.8392C48.1631 32.6679 50.7912 32.6679 54.2212 32.6679L654.546 32.6679C657.976 32.6679 660.604 32.6679 662.703 32.8392ZM642.133 3.53161C663.91 3.53161 674.799 3.53161 683.117 7.76583C690.434 11.4904 696.382 17.4334 700.11 24.7432C704.349 33.0533 704.349 43.9319 704.349 65.689L704.349 854.311C704.349 876.068 704.349 886.947 700.11 895.257C696.382 902.566 690.434 908.51 683.117 912.234C674.799 916.468 663.91 916.468 642.133 916.468L66.6347 916.468C44.857 916.468 33.9682 916.468 25.6502 912.234C18.3335 908.509 12.3849 902.566 8.65682 895.257C4.4186 886.947 4.4186 876.068 4.4186 854.311L4.41864 65.689C4.41864 43.9319 4.41864 33.0533 8.65686 24.7432C12.3849 17.4334 18.3336 11.4903 25.6502 7.76581C33.9682 3.53159 44.857 3.53159 66.6347 3.53159L642.133 3.53161ZM654.505 33.5508C661.434 33.5508 664.899 33.5508 667.546 34.8981C669.874 36.0831 671.766 37.9741 672.953 40.2999C674.301 42.9441 674.301 46.4054 674.301 53.3282L674.301 866.672C674.301 873.594 674.301 877.056 672.953 879.7C671.766 882.026 669.874 883.917 667.546 885.102C664.899 886.449 661.434 886.449 654.505 886.449L54.2622 886.449C47.3328 886.449 43.8682 886.449 41.2216 885.102C38.8936 883.917 37.0008 882.026 35.8146 879.7C34.4661 877.056 34.4661 873.594 34.4661 866.672L34.4662 53.3281C34.4662 46.4054 34.4662 42.944 35.8146 40.2999C37.0009 37.9741 38.8936 36.0831 41.2216 34.898C43.8682 33.5508 47.3329 33.5508 54.2622 33.5508L654.505 33.5508Z" fill="#1B1B1B" fill-opacity="0.2"/>
<path fill-rule="evenodd" clip-rule="evenodd" d="M681.431 10.2222C673.491 6.18042 663.097 6.18042 642.31 6.18042L66.458 6.18039C45.6702 6.18039 35.2764 6.18039 27.3365 10.2221C20.3524 13.7774 14.6741 19.4503 11.1155 26.4278C7.07001 34.3602 7.07001 44.7443 7.07 65.5125L7.06997 854.487C7.06997 875.256 7.06997 885.64 11.1155 893.572C14.6741 900.55 20.3524 906.223 27.3364 909.778C35.2763 913.82 45.6702 913.82 66.458 913.82L642.309 913.82C663.097 913.82 673.491 913.82 681.431 909.778C688.415 906.223 694.093 900.55 697.652 893.572C701.697 885.64 701.697 875.256 701.697 854.487L701.698 65.5125C701.698 44.7443 701.698 34.3602 697.652 26.4278C694.093 19.4503 688.415 13.7774 681.431 10.2222Z" fill="url(#paint4_linear_206_9)"/>
<ellipse cx="354.306" cy="19.8539" rx="4.24422" ry="4.24021" transform="rotate(-180 354.306 19.8539)" fill="url(#paint5_linear_206_9)"/>
<ellipse cx="354.306" cy="19.8538" rx="2.74625" ry="2.74367" fill="url(#paint6_radial_206_9)"/>
<g filter="url(#filter0_f_206_9)">
<path d="M354.056 17.611C353.526 17.611 353.018 17.8475 352.644 18.2684C352.269 18.6894 352.059 19.2604 352.059 19.8558C352.059 20.4511 352.269 21.0221 352.644 21.4431C353.018 21.8641 353.526 22.1006 354.056 22.1006L354.056 19.8558L354.056 17.611Z" fill="url(#paint7_linear_206_9)"/>
</g>
<g filter="url(#filter1_f_206_9)">
<ellipse cx="353.807" cy="18.8551" rx="0.748978" ry="0.748272" fill="#50326D"/>
</g>
<g filter="url(#filter2_f_206_9)">
<path d="M354.556 22.0997C355.086 22.0997 355.594 21.8632 355.968 21.4422C356.343 21.0213 356.553 20.4503 356.553 19.8549C356.553 19.2596 356.343 18.6886 355.968 18.2676C355.594 17.8466 355.086 17.6101 354.556 17.6101L354.556 19.8549L354.556 22.0997Z" fill="url(#paint8_linear_206_9)"/>
</g>
<g filter="url(#filter3_f_206_9)">
<ellipse cx="354.805" cy="20.8519" rx="0.748978" ry="0.748273" fill="url(#paint9_linear_206_9)"/>
</g>
<ellipse cx="333.085" cy="19.6047" rx="6.49113" ry="6.48503" fill="black"/>
<ellipse cx="309.617" cy="19.6047" rx="6.49113" ry="6.48503" fill="black"/>
<ellipse cx="396.499" cy="19.6047" rx="6.49113" ry="6.48503" fill="black"/>
<ellipse cx="377.276" cy="19.8562" rx="1.7476" ry="1.74597" fill="black"/>
<mask id="mask0_206_9" style="mask-type:alpha" maskUnits="userSpaceOnUse" x="33" y="33" width="641" height="854">
<path d="M33.5825 45.9117C33.5825 39.085 39.1219 33.5509 45.955 33.5509H661.045C667.878 33.5509 673.417 39.085 673.417 45.9117V874.088C673.417 880.915 667.878 886.449 661.045 886.449H45.955C39.1219 886.449 33.5825 880.915 33.5825 874.088V45.9117Z" fill="#D9D9D9"/>
</mask>
<g mask="url(#mask0_206_9)">
<rect width="639.835" height="852.898" transform="translate(33.5825 33.5509)" fill="black"/>

</g>
<defs>
<filter id="filter0_f_206_9" x="350.542" y="16.0946" width="5.0301" height="7.52241" filterUnits="userSpaceOnUse" color-interpolation-filters="sRGB">
<feFlood flood-opacity="0" result="BackgroundImageFix"/>
<feBlend mode="normal" in="SourceGraphic" in2="BackgroundImageFix" result="shape"/>
<feGaussianBlur stdDeviation="0.758198" result="effect1_foregroundBlur_206_9"/>
</filter>
<filter id="filter1_f_206_9" x="350.784" y="15.8322" width="6.04723" height="6.04577" filterUnits="userSpaceOnUse" color-interpolation-filters="sRGB">
<feFlood flood-opacity="0" result="BackgroundImageFix"/>
<feBlend mode="normal" in="SourceGraphic" in2="BackgroundImageFix" result="shape"/>
<feGaussianBlur stdDeviation="1.1373" result="effect1_foregroundBlur_206_9"/>
</filter>
<filter id="filter2_f_206_9" x="353.04" y="16.0937" width="5.0301" height="7.52241" filterUnits="userSpaceOnUse" color-interpolation-filters="sRGB">
<feFlood flood-opacity="0" result="BackgroundImageFix"/>
<feBlend mode="normal" in="SourceGraphic" in2="BackgroundImageFix" result="shape"/>
<feGaussianBlur stdDeviation="0.758198" result="effect1_foregroundBlur_206_9"/>
</filter>
<filter id="filter3_f_206_9" x="353.297" y="19.3454" width="3.01444" height="3.01298" filterUnits="userSpaceOnUse" color-interpolation-filters="sRGB">
<feFlood flood-opacity="0" result="BackgroundImageFix"/>
<feBlend mode="normal" in="SourceGraphic" in2="BackgroundImageFix" result="shape"/>
<feGaussianBlur stdDeviation="0.379099" result="effect1_foregroundBlur_206_9"/>
</filter>

<linearGradient id="paint0_linear_206_9" x1="618.625" y1="2.94309" x2="658.394" y2="2.94309" gradientUnits="userSpaceOnUse">
<stop stop-color="#B0B0B0"/>
<stop offset="0.0885417" stop-color="#636363"/>
<stop offset="0.177083" stop-color="#C2C2C2"/>
<stop offset="0.75" stop-color="#C2C2C2"/>
<stop offset="0.864583" stop-color="#EFEEEE"/>
<stop offset="1" stop-color="#6C6C6C"/>
</linearGradient>
<linearGradient id="paint1_linear_206_9" x1="702.581" y1="100.065" x2="734.366" y2="100.065" gradientUnits="userSpaceOnUse">
<stop stop-color="#B0B0B0"/>
<stop offset="0.0885417" stop-color="#636363"/>
<stop offset="0.177083" stop-color="#C2C2C2"/>
<stop offset="0.75" stop-color="#C2C2C2"/>
<stop offset="0.864583" stop-color="#EFEEEE"/>
<stop offset="1" stop-color="#6C6C6C"/>
</linearGradient>
<linearGradient id="paint2_linear_206_9" x1="702.581" y1="140.679" x2="734.366" y2="140.679" gradientUnits="userSpaceOnUse">
<stop stop-color="#B0B0B0"/>
<stop offset="0.0885417" stop-color="#636363"/>
<stop offset="0.177083" stop-color="#C2C2C2"/>
<stop offset="0.75" stop-color="#C2C2C2"/>
<stop offset="0.864583" stop-color="#EFEEEE"/>
<stop offset="1" stop-color="#6C6C6C"/>
</linearGradient>
<linearGradient id="paint3_linear_206_9" x1="682.476" y1="3.53163" x2="-121.272" y2="155.743" gradientUnits="userSpaceOnUse">
<stop stop-color="#BBBBBB"/>
<stop offset="1" stop-color="#828483"/>
</linearGradient>
<linearGradient id="paint4_linear_206_9" x1="701.697" y1="460" x2="7.06999" y2="460" gradientUnits="userSpaceOnUse">
<stop stop-color="#1F1F1F"/>
<stop offset="1" stop-color="#0F0F0F"/>
</linearGradient>
<linearGradient id="paint5_linear_206_9" x1="350.811" y1="17.6091" x2="357.549" y2="21.6055" gradientUnits="userSpaceOnUse">
<stop stop-color="#222222"/>
<stop offset="1" stop-color="#0B0B0B"/>
</linearGradient>
<radialGradient id="paint6_radial_206_9" cx="0" cy="0" r="1" gradientTransform="matrix(2.24693 1.74597 -1.76053 2.26141 354.306 19.6043)" gradientUnits="userSpaceOnUse">
<stop stop-color="#152457"/>
<stop offset="1"/>
</radialGradient>
<linearGradient id="paint7_linear_206_9" x1="352.558" y1="18.1098" x2="353.804" y2="22.1013" gradientUnits="userSpaceOnUse">
<stop stop-color="#20569B"/>
<stop offset="1" stop-color="#061127"/>
</linearGradient>
<linearGradient id="paint8_linear_206_9" x1="356.054" y1="21.6009" x2="354.808" y2="17.6094" gradientUnits="userSpaceOnUse">
<stop stop-color="#3D6495"/>
<stop offset="1" stop-color="#061127"/>
</linearGradient>
<linearGradient id="paint9_linear_206_9" x1="355.803" y1="21.3508" x2="354.806" y2="20.1027" gradientUnits="userSpaceOnUse">
<stop stop-color="#3291AF"/>
<stop offset="1" stop-color="#3291AF" stop-opacity="0"/>
</linearGradient>

</defs>
</svg>
