<svg width="391" height="785" viewBox="0 0 391 785" fill="none" xmlns="http://www.w3.org/2000/svg" xmlns:xlink="http://www.w3.org/1999/xlink">
<g clip-path="url(#clip0_2517_2526)">
<path d="M391 328C391 329.105 390.105 330 389 330L386 330L386 231L389 231C390.105 231 391 231.895 391 233L391 328Z" fill="#373737"/>
<path opacity="0.76" d="M391 328C391 329.105 390.105 330 389 330L386 330L386 231L389 231C390.105 231 391 231.895 391 233L391 328Z" fill="url(#paint0_linear_2517_2526)"/>
<path d="M391 328C391 329.105 390.105 330 389 330L386 330L386 231L389 231C390.105 231 391 231.895 391 233L391 328Z" fill="url(#paint1_linear_2517_2526)"/>
<path opacity="0.48" d="M391 328C391 329.105 390.105 330 389 330L386 330L386 231L389 231C390.105 231 391 231.895 391 233L391 328Z" fill="url(#paint2_linear_2517_2526)"/>
<g filter="url(#filter0_f_2517_2526)">
<path d="M390 237.5C390 237.776 389.776 238 389.5 238C389.224 238 389 237.776 389 237.5L389 236L390 236L390 237.5Z" fill="#909090"/>
</g>
<g filter="url(#filter1_f_2517_2526)">
<path d="M390 324L389 324L389 233.5C389 233.224 389.224 233 389.5 233C389.776 233 390 233.224 390 233.5L390 324Z" fill="#555555" fill-opacity="0.8"/>
</g>
<g filter="url(#filter2_f_2517_2526)">
<path d="M391 326L390 326L390 231.5C390 231.224 390.224 231 390.5 231C390.776 231 391 231.224 391 231.5L391 326Z" fill="black"/>
</g>
</g>
<g clip-path="url(#clip1_2517_2526)">
<path d="M391 562C391 563.105 390.105 564 389 564L386 564L386 465L389 465C390.105 465 391 465.895 391 467L391 562Z" fill="#373737"/>
<path opacity="0.76" d="M391 562C391 563.105 390.105 564 389 564L386 564L386 465L389 465C390.105 465 391 465.895 391 467L391 562Z" fill="url(#paint3_linear_2517_2526)"/>
<path d="M391 562C391 563.105 390.105 564 389 564L386 564L386 465L389 465C390.105 465 391 465.895 391 467L391 562Z" fill="url(#paint4_linear_2517_2526)"/>
<path opacity="0.48" d="M391 562C391 563.105 390.105 564 389 564L386 564L386 465L389 465C390.105 465 391 465.895 391 467L391 562Z" fill="url(#paint5_linear_2517_2526)"/>
<g filter="url(#filter3_f_2517_2526)">
<path d="M390 558L389 558L389 467.5C389 467.224 389.224 467 389.5 467C389.776 467 390 467.224 390 467.5L390 558Z" fill="#555555" fill-opacity="0.8"/>
</g>
<g filter="url(#filter4_f_2517_2526)">
<path d="M391 560L390 560L390 465.5C390 465.224 390.224 465 390.5 465C390.776 465 391 465.224 391 465.5L391 560Z" fill="black"/>
</g>
</g>
<g clip-path="url(#clip2_2517_2526)">
<path d="M0 151C0 149.895 0.895431 149 2 149H5V180H2C0.89543 180 0 179.105 0 178V151Z" fill="#373737"/>
<path opacity="0.76" d="M0 151C0 149.895 0.895431 149 2 149H5V180H2C0.89543 180 0 179.105 0 178V151Z" fill="url(#paint6_linear_2517_2526)"/>
<path d="M0 151C0 149.895 0.895431 149 2 149H5V180H2C0.89543 180 0 179.105 0 178V151Z" fill="url(#paint7_linear_2517_2526)"/>
<path opacity="0.48" d="M0 151C0 149.895 0.895431 149 2 149H5V180H2C0.89543 180 0 179.105 0 178V151Z" fill="url(#paint8_linear_2517_2526)"/>
<g filter="url(#filter5_f_2517_2526)">
<path d="M1 150.5C1 150.224 1.22386 150 1.5 150C1.77614 150 2 150.224 2 150.5V152H1V150.5Z" fill="#909090"/>
</g>
<g filter="url(#filter6_f_2517_2526)">
<path d="M1 152H2V177.5C2 177.776 1.77614 178 1.5 178C1.22386 178 1 177.776 1 177.5V152Z" fill="#555555" fill-opacity="0.8"/>
</g>
<g filter="url(#filter7_f_2517_2526)">
<path d="M0 148H1V181.5C1 181.776 0.776142 182 0.5 182C0.223858 182 0 181.776 0 181.5V148Z" fill="black"/>
</g>
</g>
<g clip-path="url(#clip3_2517_2526)">
<path d="M0 211C0 209.895 0.895431 209 2 209H5V265H2C0.89543 265 0 264.105 0 263V211Z" fill="#373737"/>
<path opacity="0.76" d="M0 211C0 209.895 0.895431 209 2 209H5V265H2C0.89543 265 0 264.105 0 263V211Z" fill="url(#paint9_linear_2517_2526)"/>
<path d="M0 211C0 209.895 0.895431 209 2 209H5V265H2C0.89543 265 0 264.105 0 263V211Z" fill="url(#paint10_linear_2517_2526)"/>
<path opacity="0.48" d="M0 211C0 209.895 0.895431 209 2 209H5V265H2C0.89543 265 0 264.105 0 263V211Z" fill="url(#paint11_linear_2517_2526)"/>
<g filter="url(#filter8_f_2517_2526)">
<path d="M1 210.5C1 210.224 1.22386 210 1.5 210C1.77614 210 2 210.224 2 210.5V213H1V210.5Z" fill="#909090"/>
</g>
<g filter="url(#filter9_f_2517_2526)">
<path d="M1 212H2V263.5C2 263.776 1.77614 264 1.5 264C1.22386 264 1 263.776 1 263.5V212Z" fill="#555555" fill-opacity="0.8"/>
</g>
<g filter="url(#filter10_f_2517_2526)">
<path d="M0 209H1V266.5C1 266.776 0.776142 267 0.5 267C0.223858 267 0 266.776 0 266.5V209Z" fill="black"/>
</g>
</g>
<g clip-path="url(#clip4_2517_2526)">
<path d="M0 284C0 282.895 0.895431 282 2 282H5V338H2C0.89543 338 0 337.105 0 336V284Z" fill="#373737"/>
<path opacity="0.76" d="M0 284C0 282.895 0.895431 282 2 282H5V338H2C0.89543 338 0 337.105 0 336V284Z" fill="url(#paint12_linear_2517_2526)"/>
<path d="M0 284C0 282.895 0.895431 282 2 282H5V338H2C0.89543 338 0 337.105 0 336V284Z" fill="url(#paint13_linear_2517_2526)"/>
<path opacity="0.48" d="M0 284C0 282.895 0.895431 282 2 282H5V338H2C0.89543 338 0 337.105 0 336V284Z" fill="url(#paint14_linear_2517_2526)"/>
<g filter="url(#filter11_f_2517_2526)">
<path d="M1 284.5C1 284.224 1.22386 284 1.5 284C1.77614 284 2 284.224 2 284.5V286H1V284.5Z" fill="#909090"/>
</g>
<g filter="url(#filter12_f_2517_2526)">
<path d="M1 285H2V336.5C2 336.776 1.77614 337 1.5 337C1.22386 337 1 336.776 1 336.5V285Z" fill="#555555" fill-opacity="0.8"/>
</g>
<g filter="url(#filter13_f_2517_2526)">
<path d="M0 282H1V339.5C1 339.776 0.776142 340 0.5 340C0.223858 340 0 339.776 0 339.5V282Z" fill="black"/>
</g>
</g>
<g clip-path="url(#clip5_2517_2526)">
<rect x="3" width="385" height="785" rx="62" fill="black"/>
</g>
<g clip-path="url(#clip6_2517_2526)">
<g filter="url(#filter14_f_2517_2526)">
<rect x="4.5" y="1.5" width="382" height="782" rx="60.5" stroke="#7B7B7B" stroke-width="3"/>
</g>
</g>
<g clip-path="url(#clip7_2517_2526)">
<g filter="url(#filter15_f_2517_2526)">
<rect x="3.5" y="0.5" width="384" height="784" rx="61.5" stroke="black"/>
</g>
</g>
<g filter="url(#filter16_f_2517_2526)">
<rect x="8.5" y="5.5" width="375" height="775" rx="57.5" stroke="#5F5F5F"/>
</g>
<rect x="6.8" y="3.8" width="377.4" height="777.4" rx="58.2" stroke="#232323" stroke-width="0.4"/>
<rect x="304" width="6" height="4" fill="url(#paint15_linear_2517_2526)"/>
<rect x="3" y="87" width="6" height="4" transform="rotate(-90 3 87)" fill="url(#paint16_linear_2517_2526)"/>
<rect x="3" y="698" width="4" height="6" fill="url(#paint17_linear_2517_2526)"/>
<rect x="66" y="781" width="5" height="4" fill="url(#paint18_linear_2517_2526)"/>
<rect x="384" y="698" width="4" height="6" fill="url(#paint19_linear_2517_2526)"/>
<g clip-path="url(#clip8_2517_2526)">
<rect x="7" y="4" width="377" height="777" rx="58" fill="#000100"/>
<g filter="url(#filter17_f_2517_2526)">
<rect x="9" y="6" width="373" height="773" rx="56" stroke="url(#paint20_radial_2517_2526)" stroke-width="4"/>
</g>
</g>
<g clip-path="url(#clip9_2517_2526)">
<rect x="13" y="10" width="365" height="765" fill="black"/>
<rect x="13" y="10" width="365" height="765" fill="url(#pattern0_2517_2526)"/>
<path d="M51.8604 46.489V44.1897H46V42.4382C47.5522 39.7405 49.2539 36.9846 50.8809 34.511H53.9106V42.4216H55.521V44.1897H53.9106V46.489H51.8604ZM47.9922 42.4714H51.8936V36.2209H51.769C50.5405 38.0969 49.1543 40.3132 47.9922 42.3469V42.4714Z" fill="white"/>
<path d="M58.8413 38.7319C58.0859 38.7319 57.5215 38.1509 57.5215 37.4204C57.5215 36.6816 58.0859 36.1089 58.8413 36.1089C59.605 36.1089 60.1611 36.6816 60.1611 37.4204C60.1611 38.1509 59.605 38.7319 58.8413 38.7319ZM58.8413 44.8911C58.0859 44.8911 57.5215 44.3184 57.5215 43.5796C57.5215 42.8408 58.0859 42.2681 58.8413 42.2681C59.605 42.2681 60.1611 42.8408 60.1611 43.5796C60.1611 44.3184 59.605 44.8911 58.8413 44.8911Z" fill="white"/>
<path d="M65.2812 46.489V36.6194H65.1401L62.1602 38.7278V36.7107L65.2896 34.511H67.4229V46.489H65.2812Z" fill="white"/>
<path d="M73.873 34.2122C76.4297 34.2122 78.6543 36.03 78.6543 40.3464V40.363C78.6543 44.3972 76.8364 46.7878 73.8232 46.7878C71.6235 46.7878 69.98 45.4846 69.5981 43.6501L69.5815 43.5588H71.6899L71.7148 43.6418C72.0303 44.4802 72.769 45.0281 73.8232 45.0281C75.7241 45.0281 76.5293 43.1687 76.6206 40.8777C76.6206 40.7864 76.6289 40.6951 76.6289 40.6038H76.4629C76.0229 41.55 74.9771 42.3884 73.3335 42.3884C71.0342 42.3884 69.4238 40.7117 69.4238 38.4373V38.4207C69.4238 35.9885 71.2749 34.2122 73.873 34.2122ZM73.8647 40.7449C75.2178 40.7449 76.2554 39.7654 76.2554 38.4124V38.3958C76.2554 37.0261 75.2178 35.9553 73.8896 35.9553C72.5698 35.9553 71.5156 37.0095 71.5156 38.3459V38.3625C71.5156 39.7488 72.5034 40.7449 73.8647 40.7449Z" fill="white"/>
<path opacity="0.35" d="M334.6 34.5273H351.6C353.517 34.5273 355.072 36.0822 355.072 38V43C355.072 44.9178 353.517 46.4727 351.6 46.4727H334.6C332.682 46.4727 331.127 44.9178 331.127 43V38C331.127 36.0822 332.682 34.5273 334.6 34.5273Z" stroke="white" stroke-width="1.05509"/>
<path opacity="0.4" d="M356.6 39V43.2203C357.449 42.8629 358.001 42.0314 358.001 41.1102C358.001 40.1889 357.449 39.3574 356.6 39Z" fill="white"/>
<path d="M332.6 38C332.6 36.8954 333.495 36 334.6 36H351.6C352.704 36 353.6 36.8954 353.6 38V43C353.6 44.1046 352.704 45 351.6 45H334.6C333.495 45 332.6 44.1046 332.6 43V38Z" fill="white"/>
<path fill-rule="evenodd" clip-rule="evenodd" d="M316.1 36.5875C318.567 36.5876 320.939 37.5551 322.726 39.2898C322.861 39.4237 323.076 39.4221 323.209 39.286L324.496 37.9605C324.563 37.8915 324.6 37.798 324.6 37.7008C324.599 37.6035 324.561 37.5105 324.493 37.4423C319.801 32.8526 312.399 32.8526 307.707 37.4423C307.639 37.5105 307.6 37.6034 307.6 37.7007C307.599 37.7979 307.636 37.8914 307.703 37.9605L308.991 39.286C309.123 39.4223 309.338 39.424 309.473 39.2898C311.261 37.5549 313.633 36.5875 316.1 36.5875ZM316.136 40.6724C317.491 40.6723 318.798 41.1864 319.802 42.115C319.938 42.2467 320.152 42.2439 320.284 42.1085L321.57 40.7829C321.637 40.7134 321.675 40.6191 321.674 40.5211C321.673 40.4231 321.634 40.3295 321.565 40.2614C318.506 37.3568 313.768 37.3568 310.709 40.2614C310.64 40.3295 310.601 40.4231 310.6 40.5212C310.599 40.6192 310.636 40.7135 310.704 40.7829L311.989 42.1085C312.122 42.2439 312.336 42.2467 312.471 42.115C313.475 41.1871 314.781 40.6729 316.136 40.6724ZM318.749 43.3427C318.751 43.441 318.713 43.5357 318.645 43.6046L316.421 45.8948C316.356 45.9621 316.267 46 316.175 46C316.082 46 315.993 45.9621 315.928 45.8948L313.704 43.6046C313.635 43.5357 313.598 43.4409 313.6 43.3426C313.602 43.2443 313.643 43.1512 313.715 43.0853C315.135 41.8595 317.214 41.8595 318.634 43.0853C318.706 43.1513 318.747 43.2444 318.749 43.3427Z" fill="white"/>
<path d="M292.6 37C292.6 36.4477 293.047 36 293.6 36H294.6C295.152 36 295.6 36.4477 295.6 37V45C295.6 45.5523 295.152 46 294.6 46H293.6C293.047 46 292.6 45.5523 292.6 45V37Z" fill="white"/>
<path d="M297.6 35C297.6 34.4477 298.047 34 298.6 34H299.6C300.152 34 300.6 34.4477 300.6 35V45C300.6 45.5523 300.152 46 299.6 46H298.6C298.047 46 297.6 45.5523 297.6 45V35Z" fill="white"/>
<path d="M287.6 40.5C287.6 39.9477 288.047 39.5 288.6 39.5H289.6C290.152 39.5 290.6 39.9477 290.6 40.5V45C290.6 45.5523 290.152 46 289.6 46H288.6C288.047 46 287.6 45.5523 287.6 45V40.5Z" fill="white"/>
<path d="M282.6 43C282.6 42.4477 283.047 42 283.6 42H284.6C285.152 42 285.6 42.4477 285.6 43V45C285.6 45.5523 285.152 46 284.6 46H283.6C283.047 46 282.6 45.5523 282.6 45V43Z" fill="white"/>
<rect x="140" y="24" width="110" height="31" rx="15.5" fill="#030303"/>
<circle cx="233.62" cy="39.6202" r="9.62021" fill="#0E0B0F"/>
<circle cx="233.62" cy="39.6202" r="5.34456" fill="#161424"/>
<circle cx="233.621" cy="39.6202" r="3.20674" fill="#0F0F2A"/>
<circle cx="233.62" cy="38.5512" r="1.06891" fill="#393752"/>
<rect width="139" height="5" rx="2.5" transform="matrix(-1 0 0 1 265 762)" fill="white"/>
</g>
<defs>
<filter id="filter0_f_2517_2526" x="388" y="235" width="3" height="4" filterUnits="userSpaceOnUse" color-interpolation-filters="sRGB">
<feFlood flood-opacity="0" result="BackgroundImageFix"/>
<feBlend mode="normal" in="SourceGraphic" in2="BackgroundImageFix" result="shape"/>
<feGaussianBlur stdDeviation="0.5" result="effect1_foregroundBlur_2517_2526"/>
</filter>
<filter id="filter1_f_2517_2526" x="388" y="232" width="3" height="93" filterUnits="userSpaceOnUse" color-interpolation-filters="sRGB">
<feFlood flood-opacity="0" result="BackgroundImageFix"/>
<feBlend mode="normal" in="SourceGraphic" in2="BackgroundImageFix" result="shape"/>
<feGaussianBlur stdDeviation="0.5" result="effect1_foregroundBlur_2517_2526"/>
</filter>
<filter id="filter2_f_2517_2526" x="388" y="229" width="5" height="99" filterUnits="userSpaceOnUse" color-interpolation-filters="sRGB">
<feFlood flood-opacity="0" result="BackgroundImageFix"/>
<feBlend mode="normal" in="SourceGraphic" in2="BackgroundImageFix" result="shape"/>
<feGaussianBlur stdDeviation="1" result="effect1_foregroundBlur_2517_2526"/>
</filter>
<filter id="filter3_f_2517_2526" x="388" y="466" width="3" height="93" filterUnits="userSpaceOnUse" color-interpolation-filters="sRGB">
<feFlood flood-opacity="0" result="BackgroundImageFix"/>
<feBlend mode="normal" in="SourceGraphic" in2="BackgroundImageFix" result="shape"/>
<feGaussianBlur stdDeviation="0.5" result="effect1_foregroundBlur_2517_2526"/>
</filter>
<filter id="filter4_f_2517_2526" x="388" y="463" width="5" height="99" filterUnits="userSpaceOnUse" color-interpolation-filters="sRGB">
<feFlood flood-opacity="0" result="BackgroundImageFix"/>
<feBlend mode="normal" in="SourceGraphic" in2="BackgroundImageFix" result="shape"/>
<feGaussianBlur stdDeviation="1" result="effect1_foregroundBlur_2517_2526"/>
</filter>
<filter id="filter5_f_2517_2526" x="0" y="149" width="3" height="4" filterUnits="userSpaceOnUse" color-interpolation-filters="sRGB">
<feFlood flood-opacity="0" result="BackgroundImageFix"/>
<feBlend mode="normal" in="SourceGraphic" in2="BackgroundImageFix" result="shape"/>
<feGaussianBlur stdDeviation="0.5" result="effect1_foregroundBlur_2517_2526"/>
</filter>
<filter id="filter6_f_2517_2526" x="0" y="151" width="3" height="28" filterUnits="userSpaceOnUse" color-interpolation-filters="sRGB">
<feFlood flood-opacity="0" result="BackgroundImageFix"/>
<feBlend mode="normal" in="SourceGraphic" in2="BackgroundImageFix" result="shape"/>
<feGaussianBlur stdDeviation="0.5" result="effect1_foregroundBlur_2517_2526"/>
</filter>
<filter id="filter7_f_2517_2526" x="-2" y="146" width="5" height="38" filterUnits="userSpaceOnUse" color-interpolation-filters="sRGB">
<feFlood flood-opacity="0" result="BackgroundImageFix"/>
<feBlend mode="normal" in="SourceGraphic" in2="BackgroundImageFix" result="shape"/>
<feGaussianBlur stdDeviation="1" result="effect1_foregroundBlur_2517_2526"/>
</filter>
<filter id="filter8_f_2517_2526" x="0" y="209" width="3" height="5" filterUnits="userSpaceOnUse" color-interpolation-filters="sRGB">
<feFlood flood-opacity="0" result="BackgroundImageFix"/>
<feBlend mode="normal" in="SourceGraphic" in2="BackgroundImageFix" result="shape"/>
<feGaussianBlur stdDeviation="0.5" result="effect1_foregroundBlur_2517_2526"/>
</filter>
<filter id="filter9_f_2517_2526" x="0" y="211" width="3" height="54" filterUnits="userSpaceOnUse" color-interpolation-filters="sRGB">
<feFlood flood-opacity="0" result="BackgroundImageFix"/>
<feBlend mode="normal" in="SourceGraphic" in2="BackgroundImageFix" result="shape"/>
<feGaussianBlur stdDeviation="0.5" result="effect1_foregroundBlur_2517_2526"/>
</filter>
<filter id="filter10_f_2517_2526" x="-2" y="207" width="5" height="62" filterUnits="userSpaceOnUse" color-interpolation-filters="sRGB">
<feFlood flood-opacity="0" result="BackgroundImageFix"/>
<feBlend mode="normal" in="SourceGraphic" in2="BackgroundImageFix" result="shape"/>
<feGaussianBlur stdDeviation="1" result="effect1_foregroundBlur_2517_2526"/>
</filter>
<filter id="filter11_f_2517_2526" x="0" y="283" width="3" height="4" filterUnits="userSpaceOnUse" color-interpolation-filters="sRGB">
<feFlood flood-opacity="0" result="BackgroundImageFix"/>
<feBlend mode="normal" in="SourceGraphic" in2="BackgroundImageFix" result="shape"/>
<feGaussianBlur stdDeviation="0.5" result="effect1_foregroundBlur_2517_2526"/>
</filter>
<filter id="filter12_f_2517_2526" x="0" y="284" width="3" height="54" filterUnits="userSpaceOnUse" color-interpolation-filters="sRGB">
<feFlood flood-opacity="0" result="BackgroundImageFix"/>
<feBlend mode="normal" in="SourceGraphic" in2="BackgroundImageFix" result="shape"/>
<feGaussianBlur stdDeviation="0.5" result="effect1_foregroundBlur_2517_2526"/>
</filter>
<filter id="filter13_f_2517_2526" x="-2" y="280" width="5" height="62" filterUnits="userSpaceOnUse" color-interpolation-filters="sRGB">
<feFlood flood-opacity="0" result="BackgroundImageFix"/>
<feBlend mode="normal" in="SourceGraphic" in2="BackgroundImageFix" result="shape"/>
<feGaussianBlur stdDeviation="1" result="effect1_foregroundBlur_2517_2526"/>
</filter>
<filter id="filter14_f_2517_2526" x="-1" y="-4" width="393" height="793" filterUnits="userSpaceOnUse" color-interpolation-filters="sRGB">
<feFlood flood-opacity="0" result="BackgroundImageFix"/>
<feBlend mode="normal" in="SourceGraphic" in2="BackgroundImageFix" result="shape"/>
<feGaussianBlur stdDeviation="2" result="effect1_foregroundBlur_2517_2526"/>
</filter>
<filter id="filter15_f_2517_2526" x="1" y="-2" width="389" height="789" filterUnits="userSpaceOnUse" color-interpolation-filters="sRGB">
<feFlood flood-opacity="0" result="BackgroundImageFix"/>
<feBlend mode="normal" in="SourceGraphic" in2="BackgroundImageFix" result="shape"/>
<feGaussianBlur stdDeviation="1" result="effect1_foregroundBlur_2517_2526"/>
</filter>
<filter id="filter16_f_2517_2526" x="6" y="3" width="380" height="780" filterUnits="userSpaceOnUse" color-interpolation-filters="sRGB">
<feFlood flood-opacity="0" result="BackgroundImageFix"/>
<feBlend mode="normal" in="SourceGraphic" in2="BackgroundImageFix" result="shape"/>
<feGaussianBlur stdDeviation="1" result="effect1_foregroundBlur_2517_2526"/>
</filter>
<filter id="filter17_f_2517_2526" x="0" y="-3" width="391" height="791" filterUnits="userSpaceOnUse" color-interpolation-filters="sRGB">
<feFlood flood-opacity="0" result="BackgroundImageFix"/>
<feBlend mode="normal" in="SourceGraphic" in2="BackgroundImageFix" result="shape"/>
<feGaussianBlur stdDeviation="3.5" result="effect1_foregroundBlur_2517_2526"/>
</filter>
<pattern id="pattern0_2517_2526" patternContentUnits="objectBoundingBox" width="1" height="1">
<use xlink:href="#image0_2517_2526" transform="matrix(0.000848896 0 0 0.000405029 0 -0.0184371)"/>
</pattern>
<linearGradient id="paint0_linear_2517_2526" x1="388.5" y1="330" x2="388.5" y2="325.5" gradientUnits="userSpaceOnUse">
<stop/>
<stop offset="1" stop-opacity="0"/>
</linearGradient>
<linearGradient id="paint1_linear_2517_2526" x1="386" y1="330" x2="389.5" y2="330" gradientUnits="userSpaceOnUse">
<stop/>
<stop offset="1" stop-color="#AEAEAE" stop-opacity="0"/>
</linearGradient>
<linearGradient id="paint2_linear_2517_2526" x1="388.5" y1="235.5" x2="388.5" y2="231" gradientUnits="userSpaceOnUse">
<stop stop-opacity="0"/>
<stop offset="1"/>
</linearGradient>
<linearGradient id="paint3_linear_2517_2526" x1="388.5" y1="564" x2="388.5" y2="559.5" gradientUnits="userSpaceOnUse">
<stop/>
<stop offset="1" stop-opacity="0"/>
</linearGradient>
<linearGradient id="paint4_linear_2517_2526" x1="386" y1="564" x2="389.5" y2="564" gradientUnits="userSpaceOnUse">
<stop/>
<stop offset="1" stop-color="#AEAEAE" stop-opacity="0"/>
</linearGradient>
<linearGradient id="paint5_linear_2517_2526" x1="388.5" y1="469.5" x2="388.5" y2="465" gradientUnits="userSpaceOnUse">
<stop stop-opacity="0"/>
<stop offset="1"/>
</linearGradient>
<linearGradient id="paint6_linear_2517_2526" x1="2.5" y1="149" x2="2.5" y2="152" gradientUnits="userSpaceOnUse">
<stop/>
<stop offset="1" stop-opacity="0"/>
</linearGradient>
<linearGradient id="paint7_linear_2517_2526" x1="5" y1="149" x2="1.5" y2="149" gradientUnits="userSpaceOnUse">
<stop/>
<stop offset="1" stop-color="#AEAEAE" stop-opacity="0"/>
</linearGradient>
<linearGradient id="paint8_linear_2517_2526" x1="2.5" y1="174.697" x2="2.5" y2="180" gradientUnits="userSpaceOnUse">
<stop stop-opacity="0"/>
<stop offset="1"/>
</linearGradient>
<linearGradient id="paint9_linear_2517_2526" x1="2.5" y1="209" x2="2.5" y2="213" gradientUnits="userSpaceOnUse">
<stop/>
<stop offset="1" stop-opacity="0"/>
</linearGradient>
<linearGradient id="paint10_linear_2517_2526" x1="5" y1="209" x2="1.5" y2="209" gradientUnits="userSpaceOnUse">
<stop/>
<stop offset="1" stop-color="#AEAEAE" stop-opacity="0"/>
</linearGradient>
<linearGradient id="paint11_linear_2517_2526" x1="2.5" y1="261" x2="2.5" y2="265" gradientUnits="userSpaceOnUse">
<stop stop-opacity="0"/>
<stop offset="1"/>
</linearGradient>
<linearGradient id="paint12_linear_2517_2526" x1="2.5" y1="282" x2="2.5" y2="286" gradientUnits="userSpaceOnUse">
<stop/>
<stop offset="1" stop-opacity="0"/>
</linearGradient>
<linearGradient id="paint13_linear_2517_2526" x1="5" y1="282" x2="1.5" y2="282" gradientUnits="userSpaceOnUse">
<stop/>
<stop offset="1" stop-color="#AEAEAE" stop-opacity="0"/>
</linearGradient>
<linearGradient id="paint14_linear_2517_2526" x1="2.5" y1="334" x2="2.5" y2="338" gradientUnits="userSpaceOnUse">
<stop stop-opacity="0"/>
<stop offset="1"/>
</linearGradient>
<linearGradient id="paint15_linear_2517_2526" x1="307" y1="0" x2="307" y2="4" gradientUnits="userSpaceOnUse">
<stop stop-color="#393939"/>
<stop offset="1" stop-color="#4E4E4E"/>
</linearGradient>
<linearGradient id="paint16_linear_2517_2526" x1="6" y1="87" x2="6" y2="91" gradientUnits="userSpaceOnUse">
<stop stop-color="#393939"/>
<stop offset="1" stop-color="#4E4E4E"/>
</linearGradient>
<linearGradient id="paint17_linear_2517_2526" x1="3" y1="701" x2="7" y2="701" gradientUnits="userSpaceOnUse">
<stop stop-color="#393939"/>
<stop offset="1" stop-color="#4E4E4E"/>
</linearGradient>
<linearGradient id="paint18_linear_2517_2526" x1="68.5" y1="785" x2="68.5" y2="781" gradientUnits="userSpaceOnUse">
<stop stop-color="#393939"/>
<stop offset="1" stop-color="#4E4E4E"/>
</linearGradient>
<linearGradient id="paint19_linear_2517_2526" x1="388" y1="701" x2="384" y2="701" gradientUnits="userSpaceOnUse">
<stop stop-color="#393939"/>
<stop offset="1" stop-color="#4E4E4E"/>
</linearGradient>
<radialGradient id="paint20_radial_2517_2526" cx="0" cy="0" r="1" gradientUnits="userSpaceOnUse" gradientTransform="translate(195.975 183.272) rotate(90) scale(318.289 360.211)">
<stop stop-color="#879194"/>
<stop offset="1"/>
</radialGradient>
<clipPath id="clip0_2517_2526">
<path d="M391 329C391 330.105 390.105 331 389 331L386 331L386 238L389 238C390.105 238 391 238.895 391 240L391 329Z" fill="white"/>
</clipPath>
<clipPath id="clip1_2517_2526">
<path d="M391 563C391 564.105 390.105 565 389 565L386 565L386 481L389 481C390.105 481 391 481.895 391 483L391 563Z" fill="white"/>
</clipPath>
<clipPath id="clip2_2517_2526">
<path d="M0 151C0 149.895 0.895431 149 2 149H5V180H2C0.89543 180 0 179.105 0 178V151Z" fill="white"/>
</clipPath>
<clipPath id="clip3_2517_2526">
<path d="M0 211C0 209.895 0.895431 209 2 209H5V265H2C0.89543 265 0 264.105 0 263V211Z" fill="white"/>
</clipPath>
<clipPath id="clip4_2517_2526">
<path d="M0 284C0 282.895 0.895431 282 2 282H5V338H2C0.89543 338 0 337.105 0 336V284Z" fill="white"/>
</clipPath>
<clipPath id="clip5_2517_2526">
<rect x="3" width="385" height="785" rx="62" fill="white"/>
</clipPath>
<clipPath id="clip6_2517_2526">
<rect x="3" width="385" height="785" rx="62" fill="white"/>
</clipPath>
<clipPath id="clip7_2517_2526">
<rect x="3" width="385" height="785" rx="62" fill="white"/>
</clipPath>
<clipPath id="clip8_2517_2526">
<rect x="7" y="4" width="377" height="777" rx="58" fill="white"/>
</clipPath>
<clipPath id="clip9_2517_2526">
<rect x="13" y="10" width="365" height="765" rx="52" fill="white"/>
</clipPath>

</defs>
</svg>
